<svg id="Capa_1" xmlns="http://www.w3.org/2000/svg" viewBox="180 -109.8 959.8 959.8"><style>.st0{fill:#fff23f}</style><path class="st0" d="M419.9 843.9l307.2-308.6c12.6-12.6 3.6-34.1-14.2-34.1h-24.5c-16.7 0-26.1-19.3-15.7-32.4l162.9-205.4c10.4-13.1 1.1-32.4-15.7-32.4H738c-16.5 0-25.9-18.8-16-32L930.1-77.8c9.9-13.2.5-32-16-32H585c-7.6 0-14.6 4.3-17.9 11.1L406.2 226.8c-6.6 13.3 3.1 28.9 17.9 28.9h74.2c14.8 0 24.5 15.6 17.9 28.9l-110 222.6c-6.6 13.3 3.1 28.9 17.9 28.9H494c14.8 0 24.4 15.4 18 28.7L387.8 821.1c-9.9 20.3 16.2 38.8 32.1 22.8z"/></svg>