<svg id="Layer_1" xmlns="http://www.w3.org/2000/svg" viewBox="-187 258.2 224.8 224.8"><style>.st0{fill:#0074d9}.st1{fill:#000001}</style><path class="st0" d="M12.4 452.2c-.1-.5-.2-.9-.4-1.3L.8 415.4c-1-3.1-3.9-5.3-7.2-5.3s-6.2 2.1-7.2 5.3l-11.3 36.1c-.1.2-.1.4-.1.5-.6 1.9-.9 3.9-.9 5.8 0 10.8 8.8 19.5 19.5 19.5s19.5-8.8 19.5-19.5c.1-1.9-.2-3.8-.7-5.6z" id="Layer_2"/><path class="st1" d="M18.2 385.9v12.7c0 4.1-3.4 7.5-7.5 7.5h-37c-4.1 0-7.5-3.4-7.5-7.5v-12.7c0-3.6 2.6-6.7 6-7.4v-14.3c0-2.6-2.1-4.6-4.6-4.6H-34c-6.9 12.4-19.9 20.2-34.4 20.2s-27.5-7.8-34.4-20.2h-56.9c-4.1 0-7.5-3.4-7.5-7.5v-24.8c0-4.1 3.4-7.5 7.5-7.5h57.7c4.7-7.8 12-13.6 20.4-16.6v-9.3c0-.5.1-1 .2-1.5h-20.1c-4.1 0-7.5-3.4-7.5-7.5v-10.7c0-4.1 3.4-7.5 7.5-7.5h20v-.9c0-4.1 3.4-7.5 7.5-7.5h11.4c4.1 0 7.5 3.4 7.5 7.5v.9h20c4.1 0 7.5 3.4 7.5 7.5v10.7c0 4.1-3.4 7.5-7.5 7.5h-20.1c.1.5.1 1 .1 1.5v9.3c8.4 3 15.7 8.8 20.5 16.6h14.4c17.7 0 32 14.4 32 32v26.7c3.5.4 6.4 3.6 6.4 7.4z"/></svg>