<?xml version="1.0" encoding="utf-8"?>
<!-- Generator: Adobe Illustrator 19.1.0, SVG Export Plug-In . SVG Version: 6.00 Build 0)  -->
<svg version="1.1" id="Layer_1" xmlns="http://www.w3.org/2000/svg" xmlns:xlink="http://www.w3.org/1999/xlink" x="0px" y="0px"
	 viewBox="-187 258.2 224.8 224.8" style="enable-background:new -187 258.2 224.8 224.8;" xml:space="preserve">
<style type="text/css">
	.st0{fill:#0074D9;}
	.st1{fill:#000001;}
</style>
<g id="Layer_2">
	<path class="st0" d="M12.4,452.2c-0.1-0.5-0.2-0.9-0.4-1.3L0.8,415.4c-1-3.1-3.9-5.3-7.2-5.3s-6.2,2.1-7.2,5.3l-11.3,36.1
		c-0.1,0.2-0.1,0.4-0.1,0.5c-0.6,1.9-0.9,3.9-0.9,5.8c0,10.8,8.8,19.5,19.5,19.5s19.5-8.8,19.5-19.5C13.2,455.9,12.9,454,12.4,452.2
		L12.4,452.2z"/>
</g>
<path class="st1" d="M18.2,385.9v12.7c0,4.1-3.4,7.5-7.5,7.5h-37c-4.1,0-7.5-3.4-7.5-7.5v-12.7c0-3.6,2.6-6.7,6-7.4v-14.3
	c0-2.6-2.1-4.6-4.6-4.6H-34c-6.9,12.4-19.9,20.2-34.4,20.2s-27.5-7.8-34.4-20.2h-56.9c-4.1,0-7.5-3.4-7.5-7.5v-24.8
	c0-4.1,3.4-7.5,7.5-7.5h57.7c4.7-7.8,12-13.6,20.4-16.6v-9.3c0-0.5,0.1-1,0.2-1.5h-20.1c-4.1,0-7.5-3.4-7.5-7.5v-10.7
	c0-4.1,3.4-7.5,7.5-7.5h20v-0.9c0-4.1,3.4-7.5,7.5-7.5h11.4c4.1,0,7.5,3.4,7.5,7.5v0.9h20c4.1,0,7.5,3.4,7.5,7.5v10.7
	c0,4.1-3.4,7.5-7.5,7.5h-20.1c0.1,0.5,0.1,1,0.1,1.5v9.3c8.4,3,15.7,8.8,20.5,16.6h14.4c17.7,0,32,14.4,32,32v26.7
	C15.3,378.9,18.2,382.1,18.2,385.9L18.2,385.9z"/>
</svg>
